<svg width="211" height="50" viewBox="0 0 211 50" fill="none" xmlns="http://www.w3.org/2000/svg">
<circle cx="25" cy="25" r="25" fill="black"/>
<path fillRule="evenodd" clipRule="evenodd" d="M23.1382 14C22.4933 14 22.0571 14.5621 22.0571 15.1149V32.8767C22.0571 33.4295 22.4933 34 23.1382 34H26.3815C27.0264 34 27.4625 33.4295 27.4625 32.8767V15.1149C27.4625 14.5621 27.0264 14 26.3815 14H23.1382ZM23.6787 15.6216H25.8409V17.7837H23.6787V15.6216ZM16.0811 16.1621C15.4962 16.1621 15 16.6583 15 17.2432V32.9189C15 33.5038 15.4962 33.9999 16.0811 33.9999H19.3243C19.9092 33.9999 20.4054 33.5038 20.4054 32.9189V17.2432C20.4054 16.6583 19.9092 16.1621 19.3243 16.1621H16.0811ZM16.6216 17.7838H18.7837V19.4054H16.6216V17.7838ZM23.6787 19.4054H25.8409V28.5946H23.6787V19.4054ZM16.6216 21.027H18.7837V29.1351H16.6216V21.027ZM23.6787 30.2162H25.8409V32.3783H23.6787V30.2162ZM16.6216 30.7567H18.7837V32.3783H16.6216V30.7567ZM32.1523 30.698L34.2849 30.3414L34.5523 31.9409L32.4197 32.2974L32.1523 30.698ZM32.9478 22.3444L34.0174 28.742L31.8848 29.0986L30.8152 22.7009L32.9478 22.3444ZM30.2805 19.5021L32.4131 19.1455L32.6805 20.7449L30.5479 21.1015L30.2805 19.5021ZM29.4798 17.9918C28.9325 18.0833 28.4876 18.6129 28.5876 19.2114L30.9122 33.1147C31.0122 33.7132 31.6067 34.0775 32.1539 33.986L35.3528 33.4512C35.9001 33.3597 36.3436 32.8218 36.2436 32.2233L33.919 18.32C33.819 17.7215 33.226 17.3655 32.6787 17.457L29.4798 17.9918Z" fill="white"/>
<path d="M66.044 17.754C66.044 16.686 66.2 15.744 66.512 14.928C66.836 14.112 67.268 13.434 67.808 12.894C68.36 12.342 68.996 11.928 69.716 11.652C70.448 11.376 71.222 11.238 72.038 11.238C72.842 11.238 73.598 11.376 74.306 11.652C75.026 11.928 75.656 12.342 76.196 12.894C76.736 13.434 77.162 14.112 77.474 14.928C77.798 15.744 77.96 16.686 77.96 17.754C77.96 18.69 77.84 19.524 77.6 20.256C77.36 20.988 77.024 21.624 76.592 22.164C76.172 22.692 75.674 23.124 75.098 23.46C74.534 23.784 73.928 24.006 73.28 24.126C73.292 24.402 73.412 24.642 73.64 24.846C73.88 25.062 74.18 25.242 74.54 25.386C74.9 25.53 75.302 25.65 75.746 25.746C76.19 25.842 76.634 25.914 77.078 25.962L76.664 27.33C76.04 27.246 75.44 27.132 74.864 26.988C74.3 26.856 73.784 26.676 73.316 26.448C72.86 26.22 72.476 25.926 72.164 25.566C71.852 25.218 71.642 24.78 71.534 24.252C70.778 24.204 70.064 24.03 69.392 23.73C68.72 23.418 68.138 22.992 67.646 22.452C67.154 21.9 66.764 21.234 66.476 20.454C66.188 19.674 66.044 18.774 66.044 17.754ZM67.88 17.754C67.88 18.51 67.976 19.2 68.168 19.824C68.36 20.436 68.63 20.958 68.978 21.39C69.338 21.822 69.77 22.158 70.274 22.398C70.79 22.626 71.366 22.74 72.002 22.74C72.638 22.74 73.208 22.626 73.712 22.398C74.216 22.158 74.642 21.822 74.99 21.39C75.35 20.958 75.626 20.436 75.818 19.824C76.01 19.2 76.106 18.51 76.106 17.754C76.106 16.998 76.01 16.314 75.818 15.702C75.626 15.078 75.35 14.55 74.99 14.118C74.642 13.686 74.216 13.356 73.712 13.128C73.208 12.888 72.638 12.768 72.002 12.768C71.366 12.768 70.79 12.888 70.274 13.128C69.77 13.356 69.338 13.686 68.978 14.118C68.63 14.55 68.36 15.078 68.168 15.702C67.976 16.314 67.88 16.998 67.88 17.754ZM87.9018 23.73C87.5178 23.826 87.0078 23.928 86.3718 24.036C85.7478 24.144 85.0218 24.198 84.1938 24.198C83.4738 24.198 82.8678 24.096 82.3758 23.892C81.8838 23.676 81.4878 23.376 81.1878 22.992C80.8878 22.608 80.6718 22.158 80.5398 21.642C80.4078 21.114 80.3418 20.532 80.3418 19.896V14.64H82.0158V19.536C82.0158 20.676 82.1958 21.492 82.5558 21.984C82.9158 22.476 83.5218 22.722 84.3738 22.722C84.5538 22.722 84.7398 22.716 84.9318 22.704C85.1238 22.692 85.3038 22.68 85.4718 22.668C85.6398 22.644 85.7898 22.626 85.9218 22.614C86.0658 22.59 86.1678 22.566 86.2278 22.542V14.64H87.9018V23.73ZM92.4597 24H90.7857V14.64H92.4597V24ZM91.6137 12.948C91.3137 12.948 91.0557 12.852 90.8397 12.66C90.6357 12.456 90.5337 12.186 90.5337 11.85C90.5337 11.514 90.6357 11.25 90.8397 11.058C91.0557 10.854 91.3137 10.752 91.6137 10.752C91.9137 10.752 92.1657 10.854 92.3697 11.058C92.5857 11.25 92.6937 11.514 92.6937 11.85C92.6937 12.186 92.5857 12.456 92.3697 12.66C92.1657 12.852 91.9137 12.948 91.6137 12.948ZM101.386 16.62C101.182 16.452 100.888 16.29 100.504 16.134C100.12 15.978 99.7004 15.9 99.2444 15.9C98.7644 15.9 98.3504 15.99 98.0024 16.17C97.6664 16.338 97.3904 16.578 97.1744 16.89C96.9584 17.19 96.8024 17.55 96.7064 17.97C96.6104 18.39 96.5624 18.84 96.5624 19.32C96.5624 20.412 96.8324 21.258 97.3724 21.858C97.9124 22.446 98.6324 22.74 99.5324 22.74C99.9884 22.74 100.366 22.722 100.666 22.686C100.978 22.638 101.218 22.59 101.386 22.542V16.62ZM101.386 10.32L103.06 10.032V23.73C102.676 23.838 102.184 23.946 101.584 24.054C100.984 24.162 100.294 24.216 99.5144 24.216C98.7944 24.216 98.1464 24.102 97.5704 23.874C96.9944 23.646 96.5024 23.322 96.0944 22.902C95.6864 22.482 95.3684 21.972 95.1404 21.372C94.9244 20.76 94.8164 20.076 94.8164 19.32C94.8164 18.6 94.9064 17.94 95.0864 17.34C95.2784 16.74 95.5544 16.224 95.9144 15.792C96.2744 15.36 96.7124 15.024 97.2284 14.784C97.7564 14.544 98.3564 14.424 99.0284 14.424C99.5684 14.424 100.042 14.496 100.45 14.64C100.87 14.784 101.182 14.922 101.386 15.054V10.32ZM109.106 22.794C109.502 22.794 109.85 22.788 110.15 22.776C110.462 22.752 110.72 22.716 110.924 22.668V19.878C110.804 19.818 110.606 19.77 110.33 19.734C110.066 19.686 109.742 19.662 109.358 19.662C109.106 19.662 108.836 19.68 108.548 19.716C108.272 19.752 108.014 19.83 107.774 19.95C107.546 20.058 107.354 20.214 107.198 20.418C107.042 20.61 106.964 20.868 106.964 21.192C106.964 21.792 107.156 22.212 107.54 22.452C107.924 22.68 108.446 22.794 109.106 22.794ZM108.962 14.406C109.634 14.406 110.198 14.496 110.654 14.676C111.122 14.844 111.494 15.09 111.77 15.414C112.058 15.726 112.262 16.104 112.382 16.548C112.502 16.98 112.562 17.46 112.562 17.988V23.838C112.418 23.862 112.214 23.898 111.95 23.946C111.698 23.982 111.41 24.018 111.086 24.054C110.762 24.09 110.408 24.12 110.024 24.144C109.652 24.18 109.28 24.198 108.908 24.198C108.38 24.198 107.894 24.144 107.45 24.036C107.006 23.928 106.622 23.76 106.298 23.532C105.974 23.292 105.722 22.98 105.542 22.596C105.362 22.212 105.272 21.75 105.272 21.21C105.272 20.694 105.374 20.25 105.578 19.878C105.794 19.506 106.082 19.206 106.442 18.978C106.802 18.75 107.222 18.582 107.702 18.474C108.182 18.366 108.686 18.312 109.214 18.312C109.382 18.312 109.556 18.324 109.736 18.348C109.916 18.36 110.084 18.384 110.24 18.42C110.408 18.444 110.552 18.468 110.672 18.492C110.792 18.516 110.876 18.534 110.924 18.546V18.078C110.924 17.802 110.894 17.532 110.834 17.268C110.774 16.992 110.666 16.752 110.51 16.548C110.354 16.332 110.138 16.164 109.862 16.044C109.598 15.912 109.25 15.846 108.818 15.846C108.266 15.846 107.78 15.888 107.36 15.972C106.952 16.044 106.646 16.122 106.442 16.206L106.244 14.82C106.46 14.724 106.82 14.634 107.324 14.55C107.828 14.454 108.374 14.406 108.962 14.406ZM120.94 24C120.808 23.736 120.646 23.442 120.454 23.118C120.262 22.794 120.052 22.464 119.824 22.128C119.596 21.78 119.362 21.438 119.122 21.102C118.882 20.766 118.648 20.448 118.42 20.148C118.192 20.448 117.958 20.772 117.718 21.12C117.478 21.456 117.244 21.798 117.016 22.146C116.8 22.482 116.596 22.812 116.404 23.136C116.212 23.46 116.05 23.748 115.918 24H114.19C114.61 23.184 115.108 22.356 115.684 21.516C116.272 20.664 116.854 19.854 117.43 19.086L114.334 14.64H116.224L118.456 17.916L120.706 14.64H122.488L119.464 18.978C120.04 19.758 120.628 20.586 121.228 21.462C121.84 22.326 122.356 23.172 122.776 24H120.94ZM132.176 24.108C131.924 24.108 131.648 24.102 131.348 24.09C131.06 24.078 130.766 24.06 130.466 24.036C130.178 24.012 129.89 23.982 129.602 23.946C129.314 23.91 129.05 23.862 128.81 23.802V11.706C129.05 11.646 129.314 11.598 129.602 11.562C129.89 11.526 130.178 11.496 130.466 11.472C130.766 11.448 131.06 11.43 131.348 11.418C131.636 11.406 131.906 11.4 132.158 11.4C132.878 11.4 133.55 11.454 134.174 11.562C134.81 11.67 135.356 11.856 135.812 12.12C136.28 12.372 136.646 12.708 136.91 13.128C137.174 13.548 137.306 14.064 137.306 14.676C137.306 15.36 137.144 15.924 136.82 16.368C136.496 16.8 136.064 17.124 135.524 17.34C136.256 17.556 136.838 17.898 137.27 18.366C137.702 18.834 137.918 19.494 137.918 20.346C137.918 21.594 137.456 22.536 136.532 23.172C135.62 23.796 134.168 24.108 132.176 24.108ZM130.538 18.186V22.578C130.67 22.59 130.826 22.602 131.006 22.614C131.162 22.626 131.342 22.638 131.546 22.65C131.762 22.65 132.008 22.65 132.284 22.65C132.8 22.65 133.286 22.62 133.742 22.56C134.21 22.488 134.618 22.368 134.966 22.2C135.314 22.032 135.59 21.798 135.794 21.498C136.01 21.198 136.118 20.82 136.118 20.364C136.118 19.956 136.04 19.614 135.884 19.338C135.728 19.05 135.5 18.822 135.2 18.654C134.912 18.486 134.564 18.366 134.156 18.294C133.748 18.222 133.292 18.186 132.788 18.186H130.538ZM130.538 16.782H132.374C132.806 16.782 133.214 16.752 133.598 16.692C133.982 16.632 134.312 16.524 134.588 16.368C134.876 16.212 135.098 16.008 135.254 15.756C135.422 15.504 135.506 15.186 135.506 14.802C135.506 14.442 135.422 14.142 135.254 13.902C135.086 13.65 134.852 13.452 134.552 13.308C134.264 13.152 133.922 13.038 133.526 12.966C133.13 12.894 132.71 12.858 132.266 12.858C131.822 12.858 131.474 12.864 131.222 12.876C130.97 12.888 130.742 12.906 130.538 12.93V16.782ZM148.53 19.32C148.53 20.064 148.422 20.736 148.206 21.336C147.99 21.936 147.684 22.452 147.288 22.884C146.904 23.316 146.442 23.652 145.902 23.892C145.362 24.12 144.774 24.234 144.138 24.234C143.502 24.234 142.914 24.12 142.374 23.892C141.834 23.652 141.366 23.316 140.97 22.884C140.586 22.452 140.286 21.936 140.07 21.336C139.854 20.736 139.746 20.064 139.746 19.32C139.746 18.588 139.854 17.922 140.07 17.322C140.286 16.71 140.586 16.188 140.97 15.756C141.366 15.324 141.834 14.994 142.374 14.766C142.914 14.526 143.502 14.406 144.138 14.406C144.774 14.406 145.362 14.526 145.902 14.766C146.442 14.994 146.904 15.324 147.288 15.756C147.684 16.188 147.99 16.71 148.206 17.322C148.422 17.922 148.53 18.588 148.53 19.32ZM146.784 19.32C146.784 18.264 146.544 17.43 146.064 16.818C145.596 16.194 144.954 15.882 144.138 15.882C143.322 15.882 142.674 16.194 142.194 16.818C141.726 17.43 141.492 18.264 141.492 19.32C141.492 20.376 141.726 21.216 142.194 21.84C142.674 22.452 143.322 22.758 144.138 22.758C144.954 22.758 145.596 22.452 146.064 21.84C146.544 21.216 146.784 20.376 146.784 19.32ZM159.147 19.32C159.147 20.064 159.039 20.736 158.823 21.336C158.607 21.936 158.301 22.452 157.905 22.884C157.521 23.316 157.059 23.652 156.519 23.892C155.979 24.12 155.391 24.234 154.755 24.234C154.119 24.234 153.531 24.12 152.991 23.892C152.451 23.652 151.983 23.316 151.587 22.884C151.203 22.452 150.903 21.936 150.687 21.336C150.471 20.736 150.363 20.064 150.363 19.32C150.363 18.588 150.471 17.922 150.687 17.322C150.903 16.71 151.203 16.188 151.587 15.756C151.983 15.324 152.451 14.994 152.991 14.766C153.531 14.526 154.119 14.406 154.755 14.406C155.391 14.406 155.979 14.526 156.519 14.766C157.059 14.994 157.521 15.324 157.905 15.756C158.301 16.188 158.607 16.71 158.823 17.322C159.039 17.922 159.147 18.588 159.147 19.32ZM157.401 19.32C157.401 18.264 157.161 17.43 156.681 16.818C156.213 16.194 155.571 15.882 154.755 15.882C153.939 15.882 153.291 16.194 152.811 16.818C152.343 17.43 152.109 18.264 152.109 19.32C152.109 20.376 152.343 21.216 152.811 21.84C153.291 22.452 153.939 22.758 154.755 22.758C155.571 22.758 156.213 22.452 156.681 21.84C157.161 21.216 157.401 20.376 157.401 19.32ZM164.887 18.852C165.247 19.128 165.625 19.47 166.021 19.878C166.429 20.286 166.825 20.73 167.209 21.21C167.605 21.678 167.977 22.158 168.325 22.65C168.673 23.13 168.967 23.58 169.207 24H167.245C166.993 23.58 166.699 23.154 166.363 22.722C166.039 22.278 165.697 21.858 165.337 21.462C164.977 21.054 164.611 20.682 164.239 20.346C163.867 20.01 163.513 19.728 163.177 19.5V24H161.503V10.32L163.177 10.032V18.564C163.465 18.276 163.783 17.958 164.131 17.61C164.479 17.262 164.821 16.908 165.157 16.548C165.493 16.188 165.811 15.846 166.111 15.522C166.411 15.186 166.669 14.892 166.885 14.64H168.847C168.571 14.94 168.271 15.27 167.947 15.63C167.623 15.99 167.287 16.356 166.939 16.728C166.591 17.088 166.237 17.454 165.877 17.826C165.529 18.186 165.199 18.528 164.887 18.852ZM173.085 22.794C173.769 22.794 174.273 22.704 174.597 22.524C174.933 22.344 175.101 22.056 175.101 21.66C175.101 21.252 174.939 20.928 174.615 20.688C174.291 20.448 173.757 20.178 173.013 19.878C172.653 19.734 172.305 19.59 171.969 19.446C171.645 19.29 171.363 19.11 171.123 18.906C170.883 18.702 170.691 18.456 170.547 18.168C170.403 17.88 170.331 17.526 170.331 17.106C170.331 16.278 170.637 15.624 171.249 15.144C171.861 14.652 172.695 14.406 173.751 14.406C174.015 14.406 174.279 14.424 174.543 14.46C174.807 14.484 175.053 14.52 175.281 14.568C175.509 14.604 175.707 14.646 175.875 14.694C176.055 14.742 176.193 14.784 176.289 14.82L175.983 16.26C175.803 16.164 175.521 16.068 175.137 15.972C174.753 15.864 174.291 15.81 173.751 15.81C173.283 15.81 172.875 15.906 172.527 16.098C172.179 16.278 172.005 16.566 172.005 16.962C172.005 17.166 172.041 17.346 172.113 17.502C172.197 17.658 172.317 17.802 172.473 17.934C172.641 18.054 172.845 18.168 173.085 18.276C173.325 18.384 173.613 18.498 173.949 18.618C174.393 18.786 174.789 18.954 175.137 19.122C175.485 19.278 175.779 19.464 176.019 19.68C176.271 19.896 176.463 20.16 176.595 20.472C176.727 20.772 176.793 21.144 176.793 21.588C176.793 22.452 176.469 23.106 175.821 23.55C175.185 23.994 174.273 24.216 173.085 24.216C172.257 24.216 171.609 24.144 171.141 24C170.673 23.868 170.355 23.766 170.187 23.694L170.493 22.254C170.685 22.326 170.991 22.434 171.411 22.578C171.831 22.722 172.389 22.794 173.085 22.794Z" fill="black"/>
<path d="M67.568 39.864L66.392 42H65.12C66.016 40.384 66.888 38.896 67.736 37.536C68.592 36.176 69.436 34.892 70.268 33.684H71.408C71.528 34.284 71.636 34.892 71.732 35.508C71.836 36.116 71.936 36.756 72.032 37.428C72.128 38.1 72.22 38.812 72.308 39.564C72.396 40.316 72.488 41.128 72.584 42H71.408C71.368 41.64 71.332 41.28 71.3 40.92C71.268 40.552 71.232 40.2 71.192 39.864H67.568ZM71.084 38.928C71.02 38.28 70.944 37.636 70.856 36.996C70.776 36.356 70.68 35.696 70.568 35.016C70.288 35.424 69.94 35.952 69.524 36.6C69.108 37.24 68.636 38.016 68.108 38.928H71.084ZM82.4983 39.252C82.4583 39.428 82.4183 39.6 82.3783 39.768C82.3383 39.936 82.3183 40.096 82.3183 40.248C82.3183 40.52 82.3823 40.736 82.5103 40.896C82.6463 41.056 82.8943 41.156 83.2543 41.196L83.0023 42.108C82.6743 42.1 82.3943 42.052 82.1623 41.964C81.9383 41.868 81.7543 41.744 81.6103 41.592C81.4743 41.44 81.3743 41.26 81.3103 41.052C81.2463 40.844 81.2143 40.616 81.2143 40.368C81.2143 40.184 81.2303 39.992 81.2623 39.792C81.2943 39.592 81.3383 39.384 81.3943 39.168L82.9062 32.88L84.0703 32.688L82.4983 39.252ZM77.9503 35.196C78.0463 34.796 78.1663 34.44 78.3103 34.128C78.4623 33.816 78.6503 33.556 78.8743 33.348C79.1063 33.132 79.3783 32.968 79.6903 32.856C80.0023 32.744 80.3743 32.688 80.8063 32.688C81.0383 32.688 81.2583 32.712 81.4662 32.76C81.6743 32.8 81.8423 32.852 81.9703 32.916L81.5263 33.804C81.4623 33.772 81.3623 33.74 81.2263 33.708C81.0983 33.668 80.9263 33.648 80.7103 33.648C80.4463 33.648 80.2223 33.688 80.0383 33.768C79.8543 33.84 79.6983 33.944 79.5703 34.08C79.4423 34.216 79.3383 34.38 79.2583 34.572C79.1863 34.764 79.1223 34.98 79.0663 35.22L78.9342 35.76H81.0223L80.8063 36.696H78.7183L77.7583 40.656C77.6623 41.064 77.5783 41.428 77.5063 41.748C77.4343 42.068 77.3463 42.368 77.2423 42.648C77.1463 42.928 77.0143 43.196 76.8463 43.452C76.6863 43.716 76.4663 43.988 76.1863 44.268L75.2022 44.124C75.4422 43.812 75.6303 43.548 75.7663 43.332C75.9023 43.116 76.0143 42.896 76.1023 42.672C76.1983 42.448 76.2783 42.192 76.3423 41.904C76.4143 41.608 76.5063 41.228 76.6183 40.764L77.9503 35.196ZM85.2624 42H84.1464L85.6464 35.76H86.7624L85.2624 42ZM86.5584 34.632C86.3744 34.632 86.2184 34.576 86.0904 34.464C85.9704 34.352 85.9104 34.196 85.9104 33.996C85.9104 33.74 85.9904 33.54 86.1504 33.396C86.3104 33.244 86.4904 33.168 86.6904 33.168C86.8744 33.168 87.0304 33.228 87.1584 33.348C87.2864 33.46 87.3504 33.62 87.3504 33.828C87.3504 34.068 87.2664 34.264 87.0984 34.416C86.9304 34.56 86.7504 34.632 86.5584 34.632ZM94.3587 35.628C94.7107 35.628 95.0067 35.684 95.2467 35.796C95.4947 35.9 95.6907 36.044 95.8347 36.228C95.9867 36.412 96.0947 36.628 96.1587 36.876C96.2227 37.116 96.2547 37.372 96.2547 37.644C96.2547 37.82 96.2387 38.012 96.2067 38.22C96.1827 38.42 96.1467 38.616 96.0987 38.808L95.3307 42H94.2147L94.9227 39.048C94.9627 38.864 95.0067 38.66 95.0547 38.436C95.1107 38.204 95.1387 37.976 95.1387 37.752C95.1387 37.6 95.1187 37.452 95.0787 37.308C95.0467 37.164 94.9867 37.04 94.8987 36.936C94.8187 36.832 94.7027 36.748 94.5507 36.684C94.3987 36.62 94.2107 36.588 93.9867 36.588C93.7307 36.588 93.4827 36.64 93.2427 36.744C93.0027 36.84 92.8027 36.94 92.6427 37.044C92.6587 37.156 92.6707 37.268 92.6787 37.38C92.6947 37.484 92.7027 37.588 92.7027 37.692C92.7027 37.876 92.6867 38.064 92.6547 38.256C92.6307 38.44 92.5987 38.624 92.5587 38.808L91.7907 42H90.6747L91.3827 39.048C91.4227 38.864 91.4667 38.656 91.5147 38.424C91.5627 38.192 91.5867 37.96 91.5867 37.728C91.5867 37.576 91.5707 37.432 91.5387 37.296C91.5067 37.152 91.4507 37.028 91.3707 36.924C91.2987 36.82 91.1987 36.74 91.0707 36.684C90.9427 36.62 90.7787 36.588 90.5787 36.588C90.3787 36.588 90.1827 36.6 89.9907 36.624C89.8067 36.648 89.6507 36.68 89.5227 36.72L88.2507 42H87.1347L88.5747 36C88.9347 35.888 89.3267 35.8 89.7507 35.736C90.1827 35.664 90.5667 35.628 90.9027 35.628C91.2387 35.628 91.5227 35.688 91.7547 35.808C91.9867 35.92 92.1707 36.072 92.3067 36.264C92.3867 36.208 92.4947 36.144 92.6307 36.072C92.7747 36 92.9347 35.932 93.1107 35.868C93.2947 35.804 93.4907 35.748 93.6987 35.7C93.9147 35.652 94.1347 35.628 94.3587 35.628ZM98.6322 41.22C98.8002 41.22 98.9682 41.204 99.1362 41.172C99.3122 41.14 99.4642 41.088 99.5922 41.016C99.7282 40.944 99.8362 40.848 99.9162 40.728C100.004 40.6 100.048 40.444 100.048 40.26C100.048 40.14 100.028 40.036 99.9882 39.948C99.9482 39.852 99.8842 39.764 99.7962 39.684C99.7082 39.604 99.5962 39.528 99.4602 39.456C99.3322 39.376 99.1762 39.288 98.9922 39.192C98.8082 39.104 98.6402 39.016 98.4882 38.928C98.3362 38.84 98.2002 38.736 98.0802 38.616C97.9682 38.496 97.8802 38.356 97.8162 38.196C97.7522 38.028 97.7202 37.828 97.7202 37.596C97.7202 36.996 97.9362 36.516 98.3682 36.156C98.8002 35.788 99.4282 35.604 100.252 35.604C100.636 35.604 100.972 35.644 101.26 35.724C101.556 35.796 101.76 35.864 101.872 35.928L101.452 36.84C101.34 36.776 101.16 36.708 100.912 36.636C100.664 36.564 100.388 36.528 100.084 36.528C99.9322 36.528 99.7802 36.544 99.6282 36.576C99.4762 36.608 99.3362 36.664 99.2082 36.744C99.0882 36.816 98.9882 36.916 98.9082 37.044C98.8362 37.164 98.8002 37.312 98.8002 37.488C98.8002 37.704 98.8842 37.884 99.0522 38.028C99.2202 38.164 99.4722 38.308 99.8082 38.46C100.016 38.556 100.2 38.656 100.36 38.76C100.528 38.856 100.668 38.968 100.78 39.096C100.9 39.216 100.988 39.36 101.044 39.528C101.108 39.696 101.14 39.896 101.14 40.128C101.14 40.464 101.076 40.76 100.948 41.016C100.82 41.272 100.64 41.484 100.408 41.652C100.184 41.82 99.9162 41.944 99.6042 42.024C99.2922 42.112 98.9522 42.156 98.5842 42.156C98.3122 42.156 98.0642 42.136 97.8402 42.096C97.6242 42.064 97.4322 42.024 97.2642 41.976C97.1042 41.928 96.9682 41.88 96.8562 41.832C96.7522 41.776 96.6722 41.732 96.6162 41.7L97.0482 40.788C97.1042 40.82 97.1802 40.86 97.2762 40.908C97.3802 40.956 97.5002 41.004 97.6362 41.052C97.7802 41.1 97.9362 41.14 98.1042 41.172C98.2722 41.204 98.4482 41.22 98.6322 41.22ZM104.477 40.992C104.781 40.512 105.057 40.016 105.305 39.504C105.553 38.984 105.769 38.488 105.953 38.016C106.145 37.544 106.305 37.112 106.433 36.72C106.561 36.32 106.653 36 106.709 35.76H107.873C107.785 36.064 107.661 36.444 107.501 36.9C107.341 37.348 107.145 37.836 106.913 38.364C106.689 38.884 106.433 39.42 106.145 39.972C105.865 40.516 105.557 41.04 105.221 41.544C104.965 41.92 104.709 42.272 104.453 42.6C104.197 42.936 103.921 43.224 103.625 43.464C103.337 43.712 103.017 43.904 102.665 44.04C102.313 44.184 101.917 44.256 101.477 44.256C101.253 44.256 101.045 44.228 100.853 44.172C100.661 44.116 100.521 44.056 100.433 43.992L100.817 43.08C100.897 43.144 101.005 43.196 101.141 43.236C101.277 43.284 101.429 43.308 101.597 43.308C102.061 43.308 102.453 43.196 102.773 42.972C103.101 42.748 103.409 42.452 103.697 42.084C103.401 41.116 103.157 40.096 102.965 39.024C102.781 37.952 102.669 36.864 102.629 35.76H103.769C103.777 36.12 103.797 36.516 103.829 36.948C103.861 37.372 103.905 37.816 103.961 38.28C104.025 38.736 104.097 39.196 104.177 39.66C104.265 40.124 104.365 40.568 104.477 40.992ZM113.081 36.012C113.265 35.9 113.477 35.804 113.717 35.724C113.957 35.644 114.213 35.604 114.485 35.604C114.829 35.604 115.129 35.66 115.385 35.772C115.649 35.884 115.865 36.04 116.033 36.24C116.201 36.432 116.325 36.664 116.405 36.936C116.493 37.208 116.537 37.5 116.537 37.812C116.537 38.364 116.449 38.9 116.273 39.42C116.097 39.932 115.829 40.392 115.469 40.8C115.109 41.2 114.657 41.524 114.113 41.772C113.577 42.012 112.945 42.132 112.217 42.132C112.097 42.132 111.965 42.124 111.821 42.108C111.677 42.1 111.529 42.08 111.377 42.048C111.233 42.016 111.089 41.976 110.945 41.928C110.809 41.88 110.689 41.824 110.585 41.76L112.709 32.88L113.873 32.688L113.081 36.012ZM114.209 36.552C113.969 36.552 113.729 36.596 113.489 36.684C113.257 36.764 113.037 36.88 112.829 37.032L111.857 41.1C111.937 41.116 112.029 41.132 112.133 41.148C112.237 41.164 112.341 41.172 112.445 41.172C112.901 41.172 113.313 41.084 113.681 40.908C114.049 40.724 114.361 40.484 114.617 40.188C114.873 39.884 115.069 39.54 115.205 39.156C115.349 38.764 115.421 38.356 115.421 37.932C115.421 37.756 115.401 37.584 115.361 37.416C115.329 37.248 115.265 37.1 115.169 36.972C115.081 36.844 114.957 36.744 114.797 36.672C114.645 36.592 114.449 36.552 114.209 36.552ZM119.57 42.156C118.914 42.156 118.398 41.964 118.022 41.58C117.654 41.188 117.47 40.652 117.47 39.972C117.47 39.508 117.534 39.02 117.662 38.508C117.798 37.996 118.01 37.524 118.298 37.092C118.586 36.66 118.958 36.304 119.414 36.024C119.87 35.744 120.422 35.604 121.07 35.604C121.726 35.604 122.238 35.8 122.606 36.192C122.982 36.576 123.17 37.108 123.17 37.788C123.17 38.252 123.102 38.74 122.966 39.252C122.838 39.764 122.63 40.236 122.342 40.668C122.054 41.1 121.682 41.456 121.226 41.736C120.77 42.016 120.218 42.156 119.57 42.156ZM119.762 41.208C120.122 41.208 120.442 41.104 120.722 40.896C121.01 40.688 121.25 40.424 121.442 40.104C121.642 39.776 121.794 39.416 121.898 39.024C122.002 38.632 122.054 38.252 122.054 37.884C122.054 37.476 121.966 37.152 121.79 36.912C121.614 36.672 121.31 36.552 120.878 36.552C120.518 36.552 120.194 36.656 119.906 36.864C119.626 37.072 119.386 37.34 119.186 37.668C118.994 37.988 118.846 38.344 118.742 38.736C118.638 39.128 118.586 39.508 118.586 39.876C118.586 40.284 118.674 40.608 118.85 40.848C119.026 41.088 119.33 41.208 119.762 41.208ZM126.226 42.156C125.57 42.156 125.054 41.964 124.678 41.58C124.31 41.188 124.126 40.652 124.126 39.972C124.126 39.508 124.19 39.02 124.318 38.508C124.454 37.996 124.666 37.524 124.954 37.092C125.242 36.66 125.614 36.304 126.07 36.024C126.526 35.744 127.078 35.604 127.726 35.604C128.382 35.604 128.894 35.8 129.262 36.192C129.638 36.576 129.826 37.108 129.826 37.788C129.826 38.252 129.758 38.74 129.622 39.252C129.494 39.764 129.286 40.236 128.998 40.668C128.71 41.1 128.338 41.456 127.882 41.736C127.426 42.016 126.874 42.156 126.226 42.156ZM126.418 41.208C126.778 41.208 127.098 41.104 127.378 40.896C127.666 40.688 127.906 40.424 128.098 40.104C128.298 39.776 128.45 39.416 128.554 39.024C128.658 38.632 128.71 38.252 128.71 37.884C128.71 37.476 128.622 37.152 128.446 36.912C128.27 36.672 127.966 36.552 127.534 36.552C127.174 36.552 126.85 36.656 126.562 36.864C126.282 37.072 126.042 37.34 125.842 37.668C125.65 37.988 125.502 38.344 125.398 38.736C125.294 39.128 125.242 39.508 125.242 39.876C125.242 40.284 125.33 40.608 125.506 40.848C125.682 41.088 125.986 41.208 126.418 41.208ZM130.494 42L132.69 32.88L133.854 32.688L132.51 38.244C132.774 38.052 133.046 37.844 133.326 37.62C133.606 37.388 133.87 37.16 134.118 36.936C134.374 36.712 134.606 36.5 134.814 36.3C135.03 36.092 135.206 35.912 135.342 35.76H136.662C136.494 35.968 136.278 36.2 136.014 36.456C135.758 36.712 135.486 36.972 135.198 37.236C134.91 37.492 134.618 37.74 134.322 37.98C134.034 38.22 133.774 38.424 133.542 38.592C133.758 38.792 133.974 39.032 134.19 39.312C134.414 39.584 134.626 39.876 134.826 40.188C135.034 40.492 135.222 40.804 135.39 41.124C135.558 41.436 135.698 41.728 135.81 42H134.598C134.318 41.352 133.982 40.756 133.59 40.212C133.206 39.668 132.798 39.224 132.366 38.88L131.61 42H130.494ZM139.759 39.768C139.759 39.224 139.839 38.7 139.999 38.196C140.167 37.692 140.411 37.248 140.731 36.864C141.051 36.48 141.443 36.176 141.907 35.952C142.371 35.72 142.903 35.604 143.503 35.604C143.767 35.604 144.019 35.624 144.259 35.664C144.499 35.696 144.727 35.764 144.943 35.868L144.523 36.804C144.395 36.732 144.243 36.676 144.067 36.636C143.899 36.596 143.679 36.576 143.407 36.576C143.015 36.576 142.663 36.664 142.351 36.84C142.039 37.008 141.771 37.236 141.547 37.524C141.331 37.804 141.163 38.132 141.043 38.508C140.931 38.876 140.875 39.26 140.875 39.66C140.875 39.868 140.895 40.064 140.935 40.248C140.983 40.432 141.063 40.596 141.175 40.74C141.287 40.876 141.435 40.984 141.619 41.064C141.811 41.144 142.051 41.184 142.339 41.184C142.483 41.184 142.635 41.172 142.795 41.148C142.955 41.116 143.103 41.08 143.239 41.04C143.375 41 143.495 40.96 143.599 40.92C143.711 40.872 143.791 40.828 143.839 40.788L143.935 41.736C143.783 41.832 143.547 41.924 143.227 42.012C142.907 42.108 142.543 42.156 142.135 42.156C141.751 42.156 141.411 42.1 141.115 41.988C140.819 41.868 140.571 41.704 140.371 41.496C140.171 41.28 140.019 41.028 139.915 40.74C139.811 40.444 139.759 40.12 139.759 39.768ZM147.155 42.156C146.499 42.156 145.983 41.964 145.607 41.58C145.239 41.188 145.055 40.652 145.055 39.972C145.055 39.508 145.119 39.02 145.247 38.508C145.383 37.996 145.595 37.524 145.883 37.092C146.171 36.66 146.543 36.304 146.999 36.024C147.455 35.744 148.007 35.604 148.655 35.604C149.311 35.604 149.823 35.8 150.191 36.192C150.567 36.576 150.755 37.108 150.755 37.788C150.755 38.252 150.687 38.74 150.551 39.252C150.423 39.764 150.215 40.236 149.927 40.668C149.639 41.1 149.267 41.456 148.811 41.736C148.355 42.016 147.803 42.156 147.155 42.156ZM147.347 41.208C147.707 41.208 148.027 41.104 148.307 40.896C148.595 40.688 148.835 40.424 149.027 40.104C149.227 39.776 149.379 39.416 149.483 39.024C149.587 38.632 149.639 38.252 149.639 37.884C149.639 37.476 149.551 37.152 149.375 36.912C149.199 36.672 148.895 36.552 148.463 36.552C148.103 36.552 147.779 36.656 147.491 36.864C147.211 37.072 146.971 37.34 146.771 37.668C146.579 37.988 146.431 38.344 146.327 38.736C146.223 39.128 146.171 39.508 146.171 39.876C146.171 40.284 146.259 40.608 146.435 40.848C146.611 41.088 146.915 41.208 147.347 41.208ZM158.648 35.628C159 35.628 159.296 35.684 159.536 35.796C159.784 35.9 159.98 36.044 160.124 36.228C160.276 36.412 160.384 36.628 160.448 36.876C160.512 37.116 160.544 37.372 160.544 37.644C160.544 37.82 160.528 38.012 160.496 38.22C160.472 38.42 160.436 38.616 160.388 38.808L159.62 42H158.504L159.212 39.048C159.252 38.864 159.296 38.66 159.344 38.436C159.4 38.204 159.428 37.976 159.428 37.752C159.428 37.6 159.408 37.452 159.368 37.308C159.336 37.164 159.276 37.04 159.188 36.936C159.108 36.832 158.992 36.748 158.84 36.684C158.688 36.62 158.5 36.588 158.276 36.588C158.02 36.588 157.772 36.64 157.532 36.744C157.292 36.84 157.092 36.94 156.932 37.044C156.948 37.156 156.96 37.268 156.968 37.38C156.984 37.484 156.992 37.588 156.992 37.692C156.992 37.876 156.976 38.064 156.944 38.256C156.92 38.44 156.888 38.624 156.848 38.808L156.08 42H154.964L155.672 39.048C155.712 38.864 155.756 38.656 155.804 38.424C155.852 38.192 155.876 37.96 155.876 37.728C155.876 37.576 155.86 37.432 155.828 37.296C155.796 37.152 155.74 37.028 155.66 36.924C155.588 36.82 155.488 36.74 155.36 36.684C155.232 36.62 155.068 36.588 154.868 36.588C154.668 36.588 154.472 36.6 154.28 36.624C154.096 36.648 153.94 36.68 153.812 36.72L152.54 42H151.424L152.864 36C153.224 35.888 153.616 35.8 154.04 35.736C154.472 35.664 154.856 35.628 155.192 35.628C155.528 35.628 155.812 35.688 156.044 35.808C156.276 35.92 156.46 36.072 156.596 36.264C156.676 36.208 156.784 36.144 156.92 36.072C157.064 36 157.224 35.932 157.4 35.868C157.584 35.804 157.78 35.748 157.988 35.7C158.204 35.652 158.424 35.628 158.648 35.628ZM164.997 35.604C165.389 35.604 165.725 35.66 166.005 35.772C166.293 35.884 166.529 36.04 166.713 36.24C166.897 36.432 167.033 36.664 167.121 36.936C167.217 37.2 167.265 37.492 167.265 37.812C167.265 38.364 167.181 38.9 167.013 39.42C166.845 39.932 166.585 40.388 166.233 40.788C165.889 41.188 165.449 41.508 164.913 41.748C164.385 41.988 163.757 42.108 163.029 42.108C162.941 42.108 162.845 42.104 162.741 42.096C162.637 42.088 162.545 42.076 162.465 42.06L161.949 44.22H160.833L162.801 36.024C163.137 35.888 163.501 35.784 163.893 35.712C164.293 35.64 164.661 35.604 164.997 35.604ZM162.693 41.124C162.773 41.14 162.857 41.152 162.945 41.16C163.041 41.16 163.133 41.16 163.221 41.16C163.677 41.16 164.085 41.072 164.445 40.896C164.805 40.72 165.109 40.484 165.357 40.188C165.613 39.884 165.809 39.54 165.945 39.156C166.081 38.764 166.149 38.356 166.149 37.932C166.149 37.756 166.129 37.584 166.089 37.416C166.049 37.248 165.973 37.1 165.861 36.972C165.757 36.844 165.613 36.744 165.429 36.672C165.245 36.592 165.009 36.552 164.721 36.552C164.521 36.552 164.337 36.572 164.169 36.612C164.001 36.644 163.861 36.676 163.749 36.708L162.693 41.124ZM172.184 42.072C172.144 41.984 172.104 41.888 172.064 41.784C172.024 41.672 171.992 41.556 171.968 41.436C171.792 41.596 171.556 41.756 171.26 41.916C170.964 42.076 170.6 42.156 170.168 42.156C169.816 42.156 169.512 42.1 169.256 41.988C169.008 41.876 168.804 41.72 168.644 41.52C168.484 41.32 168.364 41.084 168.284 40.812C168.212 40.54 168.176 40.24 168.176 39.912C168.176 39.376 168.264 38.852 168.44 38.34C168.624 37.828 168.896 37.372 169.256 36.972C169.616 36.572 170.068 36.248 170.612 36C171.156 35.752 171.792 35.628 172.52 35.628C172.736 35.628 172.988 35.652 173.276 35.7C173.564 35.748 173.812 35.828 174.02 35.94L173.096 39.708C173.056 39.892 173.02 40.068 172.988 40.236C172.964 40.404 172.952 40.58 172.952 40.764C172.952 40.948 172.968 41.136 173 41.328C173.032 41.512 173.088 41.712 173.168 41.928L172.184 42.072ZM170.396 41.208C170.732 41.208 171.02 41.136 171.26 40.992C171.5 40.848 171.708 40.68 171.884 40.488C171.892 40.352 171.904 40.212 171.92 40.068C171.944 39.916 171.972 39.764 172.004 39.612L172.724 36.636C172.684 36.62 172.616 36.608 172.52 36.6C172.432 36.592 172.352 36.588 172.28 36.588C171.824 36.588 171.412 36.676 171.044 36.852C170.676 37.028 170.36 37.264 170.096 37.56C169.84 37.848 169.64 38.188 169.496 38.58C169.36 38.964 169.292 39.368 169.292 39.792C169.292 39.96 169.308 40.132 169.34 40.308C169.372 40.476 169.428 40.628 169.508 40.764C169.596 40.892 169.708 41 169.844 41.088C169.988 41.168 170.172 41.208 170.396 41.208ZM175.555 42H174.439L175.879 36C176.247 35.888 176.643 35.8 177.067 35.736C177.499 35.664 177.883 35.628 178.219 35.628C178.579 35.628 178.887 35.68 179.143 35.784C179.407 35.88 179.619 36.016 179.779 36.192C179.939 36.36 180.055 36.568 180.127 36.816C180.207 37.056 180.247 37.32 180.247 37.608C180.247 37.792 180.231 37.988 180.199 38.196C180.167 38.396 180.127 38.6 180.079 38.808L179.311 42H178.195L178.903 39.048C178.959 38.824 179.011 38.596 179.059 38.364C179.115 38.132 179.143 37.912 179.143 37.704C179.143 37.384 179.055 37.12 178.879 36.912C178.703 36.696 178.375 36.588 177.895 36.588C177.695 36.588 177.499 36.6 177.307 36.624C177.115 36.648 176.955 36.68 176.827 36.72L175.555 42ZM183.415 40.992C183.719 40.512 183.995 40.016 184.243 39.504C184.491 38.984 184.707 38.488 184.891 38.016C185.083 37.544 185.243 37.112 185.371 36.72C185.499 36.32 185.591 36 185.647 35.76H186.811C186.723 36.064 186.599 36.444 186.439 36.9C186.279 37.348 186.083 37.836 185.851 38.364C185.627 38.884 185.371 39.42 185.083 39.972C184.803 40.516 184.495 41.04 184.159 41.544C183.903 41.92 183.647 42.272 183.391 42.6C183.135 42.936 182.859 43.224 182.563 43.464C182.275 43.712 181.955 43.904 181.603 44.04C181.251 44.184 180.855 44.256 180.415 44.256C180.191 44.256 179.983 44.228 179.791 44.172C179.599 44.116 179.459 44.056 179.371 43.992L179.755 43.08C179.835 43.144 179.943 43.196 180.079 43.236C180.215 43.284 180.367 43.308 180.535 43.308C180.999 43.308 181.391 43.196 181.711 42.972C182.039 42.748 182.347 42.452 182.635 42.084C182.339 41.116 182.095 40.096 181.903 39.024C181.719 37.952 181.607 36.864 181.567 35.76H182.707C182.715 36.12 182.735 36.516 182.767 36.948C182.799 37.372 182.843 37.816 182.899 38.28C182.963 38.736 183.035 39.196 183.115 39.66C183.203 40.124 183.303 40.568 183.415 40.992Z" fill="#AAAAAA"/>
</svg>
