<svg width="151" height="40" viewBox="0 0 151 40" fill="none" xmlns="http://www.w3.org/2000/svg">
<circle cx="20" cy="20" r="20" fill="black"/>
<path fillRule="evenodd" clipRule="evenodd" d="M18.1382 9C17.4933 9 17.0571 9.56205 17.0571 10.1149V27.8767C17.0571 28.4295 17.4933 29 18.1382 29H21.3815C22.0264 29 22.4625 28.4295 22.4625 27.8767V10.1149C22.4625 9.56205 22.0264 9 21.3815 9H18.1382ZM18.6787 10.6216H20.8409V12.7837H18.6787V10.6216ZM11.0811 11.1621C10.4962 11.1621 10 11.6583 10 12.2432V27.9189C10 28.5038 10.4962 28.9999 11.0811 28.9999H14.3243C14.9092 28.9999 15.4054 28.5038 15.4054 27.9189V12.2432C15.4054 11.6583 14.9092 11.1621 14.3243 11.1621H11.0811ZM11.6216 12.7838H13.7837V14.4054H11.6216V12.7838ZM18.6787 14.4054H20.8409V23.5946H18.6787V14.4054ZM11.6216 16.027H13.7837V24.1351H11.6216V16.027ZM18.6787 25.2162H20.8409V27.3783H18.6787V25.2162ZM11.6216 25.7567H13.7837V27.3783H11.6216V25.7567ZM27.1523 25.698L29.2849 25.3414L29.5523 26.9409L27.4197 27.2974L27.1523 25.698ZM27.9478 17.3444L29.0174 23.742L26.8848 24.0986L25.8152 17.7009L27.9478 17.3444ZM25.2805 14.5021L27.4131 14.1455L27.6805 15.7449L25.5479 16.1015L25.2805 14.5021ZM24.4798 12.9918C23.9325 13.0833 23.4876 13.6129 23.5876 14.2114L25.9122 28.1147C26.0122 28.7132 26.6067 29.0775 27.1539 28.986L30.3528 28.4512C30.9001 28.3597 31.3436 27.8218 31.2436 27.2233L28.919 13.32C28.819 12.7215 28.226 12.3655 27.6787 12.457L24.4798 12.9918Z" fill="white"/>
<path d="M51.954 19.142C51.954 19.618 52.01 20.0473 52.122 20.43C52.2433 20.8127 52.4113 21.144 52.626 21.424C52.85 21.6947 53.1207 21.9047 53.438 22.054C53.7553 22.2033 54.1193 22.278 54.53 22.278C54.9313 22.278 55.2907 22.2033 55.608 22.054C55.9347 21.9047 56.2053 21.6947 56.42 21.424C56.644 21.144 56.812 20.8127 56.924 20.43C57.0453 20.0473 57.106 19.618 57.106 19.142C57.106 18.666 57.0453 18.2367 56.924 17.854C56.812 17.462 56.644 17.1307 56.42 16.86C56.2053 16.58 55.9347 16.3653 55.608 16.216C55.2907 16.0667 54.9313 15.992 54.53 15.992C54.1193 15.992 53.7553 16.0713 53.438 16.23C53.1207 16.3793 52.85 16.594 52.626 16.874C52.4113 17.1447 52.2433 17.476 52.122 17.868C52.01 18.2507 51.954 18.6753 51.954 19.142ZM59.36 19.142C59.36 19.8233 59.276 20.4393 59.108 20.99C58.94 21.5313 58.702 22.0073 58.394 22.418C58.0953 22.8287 57.736 23.1693 57.316 23.44C56.896 23.7107 56.434 23.9067 55.93 24.028C55.9767 24.2147 56.0793 24.364 56.238 24.476C56.3967 24.5973 56.5973 24.6953 56.84 24.77C57.0827 24.8447 57.3627 24.9007 57.68 24.938C58.0067 24.9753 58.3567 25.008 58.73 25.036L58.282 26.632C57.554 26.604 56.9287 26.5293 56.406 26.408C55.8927 26.296 55.454 26.1373 55.09 25.932C54.7353 25.7267 54.4507 25.4747 54.236 25.176C54.0307 24.8773 53.872 24.532 53.76 24.14C53.1813 24.0653 52.6447 23.9067 52.15 23.664C51.6553 23.412 51.226 23.076 50.862 22.656C50.498 22.236 50.2133 21.732 50.008 21.144C49.8027 20.556 49.7 19.8887 49.7 19.142C49.7 18.3113 49.8307 17.5833 50.092 16.958C50.3533 16.3233 50.7033 15.7913 51.142 15.362C51.59 14.9327 52.1033 14.6107 52.682 14.396C53.27 14.1813 53.886 14.074 54.53 14.074C55.1927 14.074 55.818 14.1813 56.406 14.396C56.994 14.6107 57.5073 14.9327 57.946 15.362C58.3847 15.7913 58.73 16.3233 58.982 16.958C59.234 17.5833 59.36 18.3113 59.36 19.142ZM67.3265 23.748C66.9719 23.8507 66.5145 23.944 65.9545 24.028C65.3945 24.1213 64.8065 24.168 64.1905 24.168C63.5652 24.168 63.0425 24.084 62.6225 23.916C62.2119 23.748 61.8852 23.5147 61.6425 23.216C61.3999 22.908 61.2272 22.544 61.1245 22.124C61.0219 21.704 60.9705 21.242 60.9705 20.738V16.636H63.0565V20.486C63.0565 21.158 63.1452 21.6433 63.3225 21.942C63.4999 22.2407 63.8312 22.39 64.3165 22.39C64.4659 22.39 64.6245 22.3853 64.7925 22.376C64.9605 22.3573 65.1099 22.3387 65.2405 22.32V16.636H67.3265V23.748ZM71.3707 24H69.2847V16.636H71.3707V24ZM71.5667 14.508C71.5667 14.8907 71.4407 15.194 71.1887 15.418C70.946 15.6327 70.6567 15.74 70.3207 15.74C69.9847 15.74 69.6907 15.6327 69.4387 15.418C69.196 15.194 69.0747 14.8907 69.0747 14.508C69.0747 14.1253 69.196 13.8267 69.4387 13.612C69.6907 13.388 69.9847 13.276 70.3207 13.276C70.6567 13.276 70.946 13.388 71.1887 13.612C71.4407 13.8267 71.5667 14.1253 71.5667 14.508ZM75.1096 20.262C75.1096 20.906 75.2542 21.424 75.5436 21.816C75.8329 22.208 76.2622 22.404 76.8316 22.404C77.0182 22.404 77.1909 22.3993 77.3496 22.39C77.5082 22.3713 77.6389 22.3527 77.7416 22.334V18.54C77.6109 18.456 77.4382 18.386 77.2236 18.33C77.0182 18.274 76.8082 18.246 76.5936 18.246C75.6042 18.246 75.1096 18.918 75.1096 20.262ZM79.8276 23.762C79.6409 23.818 79.4262 23.874 79.1836 23.93C78.9409 23.9767 78.6842 24.0187 78.4136 24.056C78.1522 24.0933 77.8816 24.1213 77.6016 24.14C77.3309 24.168 77.0696 24.182 76.8176 24.182C76.2109 24.182 75.6696 24.0933 75.1936 23.916C74.7176 23.7387 74.3162 23.4867 73.9896 23.16C73.6629 22.824 73.4109 22.4227 73.2336 21.956C73.0656 21.48 72.9816 20.948 72.9816 20.36C72.9816 19.7627 73.0562 19.226 73.2056 18.75C73.3549 18.2647 73.5696 17.854 73.8496 17.518C74.1296 17.182 74.4702 16.9253 74.8716 16.748C75.2822 16.5707 75.7489 16.482 76.2716 16.482C76.5609 16.482 76.8176 16.51 77.0416 16.566C77.2749 16.622 77.5082 16.7013 77.7416 16.804V13.472L79.8276 13.136V23.762ZM84.5948 22.544C84.8001 22.544 84.9961 22.5393 85.1828 22.53C85.3694 22.5207 85.5188 22.5067 85.6308 22.488V20.906C85.5468 20.8873 85.4208 20.8687 85.2528 20.85C85.0848 20.8313 84.9308 20.822 84.7908 20.822C84.5948 20.822 84.4081 20.836 84.2308 20.864C84.0628 20.8827 83.9134 20.9247 83.7828 20.99C83.6521 21.0553 83.5494 21.144 83.4748 21.256C83.4001 21.368 83.3628 21.508 83.3628 21.676C83.3628 22.0027 83.4701 22.2313 83.6848 22.362C83.9088 22.4833 84.2121 22.544 84.5948 22.544ZM84.4268 16.44C85.0428 16.44 85.5561 16.51 85.9668 16.65C86.3774 16.79 86.7041 16.9907 86.9468 17.252C87.1988 17.5133 87.3761 17.8307 87.4788 18.204C87.5814 18.5773 87.6328 18.9927 87.6328 19.45V23.79C87.3341 23.8553 86.9188 23.93 86.3868 24.014C85.8548 24.1073 85.2108 24.154 84.4548 24.154C83.9788 24.154 83.5448 24.112 83.1528 24.028C82.7701 23.944 82.4388 23.8087 82.1588 23.622C81.8788 23.426 81.6641 23.174 81.5148 22.866C81.3654 22.558 81.2908 22.18 81.2908 21.732C81.2908 21.3027 81.3748 20.9387 81.5428 20.64C81.7201 20.3413 81.9534 20.1033 82.2428 19.926C82.5321 19.7487 82.8634 19.6227 83.2368 19.548C83.6101 19.464 83.9974 19.422 84.3988 19.422C84.6694 19.422 84.9074 19.436 85.1128 19.464C85.3274 19.4827 85.5001 19.5107 85.6308 19.548V19.352C85.6308 18.9973 85.5234 18.7127 85.3088 18.498C85.0941 18.2833 84.7208 18.176 84.1888 18.176C83.8341 18.176 83.4841 18.204 83.1388 18.26C82.7934 18.3067 82.4948 18.3767 82.2428 18.47L81.9768 16.79C82.0981 16.7527 82.2474 16.7153 82.4248 16.678C82.6114 16.6313 82.8121 16.594 83.0268 16.566C83.2414 16.5287 83.4654 16.5007 83.6988 16.482C83.9414 16.454 84.1841 16.44 84.4268 16.44ZM92.4451 18.876L93.9011 16.636H96.0571L93.5371 20.178C94.0971 20.878 94.6057 21.5593 95.0631 22.222C95.5204 22.8847 95.8844 23.4773 96.1551 24H93.9151C93.8404 23.86 93.7471 23.6873 93.6351 23.482C93.5231 23.2673 93.3971 23.048 93.2571 22.824C93.1171 22.5907 92.9677 22.362 92.8091 22.138C92.6597 21.9047 92.5104 21.6947 92.3611 21.508C92.2211 21.6853 92.0764 21.8813 91.9271 22.096C91.7871 22.3107 91.6517 22.53 91.5211 22.754C91.3904 22.9687 91.2597 23.1833 91.1291 23.398C91.0077 23.6127 90.9004 23.8133 90.8071 24H88.6791C88.7911 23.7667 88.9451 23.4913 89.1411 23.174C89.3371 22.8567 89.5471 22.53 89.7711 22.194C90.0044 21.8487 90.2471 21.508 90.4991 21.172C90.7511 20.8267 90.9984 20.5047 91.2411 20.206C90.8211 19.618 90.4011 19.0253 89.9811 18.428C89.5611 17.8213 89.1457 17.224 88.7351 16.636H90.9891L92.4451 18.876ZM104.008 24.126C103.476 24.126 102.944 24.1073 102.412 24.07C101.89 24.042 101.344 23.9673 100.774 23.846V14.438C101.222 14.354 101.712 14.2933 102.244 14.256C102.776 14.2093 103.271 14.186 103.728 14.186C104.344 14.186 104.909 14.2327 105.422 14.326C105.945 14.41 106.393 14.5593 106.766 14.774C107.14 14.9887 107.429 15.2733 107.634 15.628C107.849 15.9733 107.956 16.4027 107.956 16.916C107.956 17.6907 107.583 18.302 106.836 18.75C107.452 18.9833 107.872 19.3007 108.096 19.702C108.32 20.1033 108.432 20.556 108.432 21.06C108.432 22.0773 108.059 22.8427 107.312 23.356C106.575 23.8693 105.474 24.126 104.008 24.126ZM102.902 19.772V22.278C103.061 22.2967 103.234 22.3107 103.42 22.32C103.607 22.3293 103.812 22.334 104.036 22.334C104.69 22.334 105.217 22.2407 105.618 22.054C106.02 21.8673 106.22 21.522 106.22 21.018C106.22 20.57 106.052 20.2527 105.716 20.066C105.38 19.87 104.9 19.772 104.274 19.772H102.902ZM102.902 18.106H103.966C104.638 18.106 105.119 18.022 105.408 17.854C105.698 17.6767 105.842 17.3967 105.842 17.014C105.842 16.622 105.693 16.3467 105.394 16.188C105.096 16.0293 104.657 15.95 104.078 15.95C103.892 15.95 103.691 15.9547 103.476 15.964C103.262 15.964 103.07 15.9733 102.902 15.992V18.106ZM116.929 20.304C116.929 20.8827 116.845 21.4147 116.677 21.9C116.509 22.376 116.266 22.7867 115.949 23.132C115.631 23.468 115.249 23.7293 114.801 23.916C114.362 24.1027 113.867 24.196 113.317 24.196C112.775 24.196 112.281 24.1027 111.833 23.916C111.394 23.7293 111.016 23.468 110.699 23.132C110.381 22.7867 110.134 22.376 109.957 21.9C109.779 21.4147 109.691 20.8827 109.691 20.304C109.691 19.7253 109.779 19.198 109.957 18.722C110.143 18.246 110.395 17.84 110.713 17.504C111.039 17.168 111.422 16.9067 111.861 16.72C112.309 16.5333 112.794 16.44 113.317 16.44C113.849 16.44 114.334 16.5333 114.773 16.72C115.221 16.9067 115.603 17.168 115.921 17.504C116.238 17.84 116.485 18.246 116.663 18.722C116.84 19.198 116.929 19.7253 116.929 20.304ZM114.801 20.304C114.801 19.66 114.67 19.156 114.409 18.792C114.157 18.4187 113.793 18.232 113.317 18.232C112.841 18.232 112.472 18.4187 112.211 18.792C111.949 19.156 111.819 19.66 111.819 20.304C111.819 20.948 111.949 21.4613 112.211 21.844C112.472 22.2173 112.841 22.404 113.317 22.404C113.793 22.404 114.157 22.2173 114.409 21.844C114.67 21.4613 114.801 20.948 114.801 20.304ZM125.432 20.304C125.432 20.8827 125.348 21.4147 125.18 21.9C125.012 22.376 124.77 22.7867 124.452 23.132C124.135 23.468 123.752 23.7293 123.304 23.916C122.866 24.1027 122.371 24.196 121.82 24.196C121.279 24.196 120.784 24.1027 120.336 23.916C119.898 23.7293 119.52 23.468 119.202 23.132C118.885 22.7867 118.638 22.376 118.46 21.9C118.283 21.4147 118.194 20.8827 118.194 20.304C118.194 19.7253 118.283 19.198 118.46 18.722C118.647 18.246 118.899 17.84 119.216 17.504C119.543 17.168 119.926 16.9067 120.364 16.72C120.812 16.5333 121.298 16.44 121.82 16.44C122.352 16.44 122.838 16.5333 123.276 16.72C123.724 16.9067 124.107 17.168 124.424 17.504C124.742 17.84 124.989 18.246 125.166 18.722C125.344 19.198 125.432 19.7253 125.432 20.304ZM123.304 20.304C123.304 19.66 123.174 19.156 122.912 18.792C122.66 18.4187 122.296 18.232 121.82 18.232C121.344 18.232 120.976 18.4187 120.714 18.792C120.453 19.156 120.322 19.66 120.322 20.304C120.322 20.948 120.453 21.4613 120.714 21.844C120.976 22.2173 121.344 22.404 121.82 22.404C122.296 22.404 122.66 22.2173 122.912 21.844C123.174 21.4613 123.304 20.948 123.304 20.304ZM129.134 19.296C129.34 19.072 129.55 18.8387 129.764 18.596C129.988 18.3533 130.203 18.1153 130.408 17.882C130.614 17.6393 130.805 17.4107 130.982 17.196C131.169 16.9813 131.328 16.7947 131.458 16.636H133.936C133.442 17.2053 132.956 17.7513 132.48 18.274C132.014 18.7873 131.5 19.3193 130.94 19.87C131.22 20.122 131.51 20.4253 131.808 20.78C132.107 21.1253 132.396 21.4847 132.676 21.858C132.956 22.2313 133.213 22.6047 133.446 22.978C133.68 23.3513 133.876 23.692 134.034 24H131.64C131.491 23.7573 131.318 23.4913 131.122 23.202C130.936 22.9033 130.735 22.6093 130.52 22.32C130.306 22.0213 130.077 21.7367 129.834 21.466C129.601 21.1953 129.368 20.9667 129.134 20.78V24H127.048V13.472L129.134 13.136V19.296ZM137.27 22.502C137.652 22.502 137.923 22.4647 138.082 22.39C138.24 22.3153 138.32 22.1707 138.32 21.956C138.32 21.788 138.217 21.6433 138.012 21.522C137.806 21.3913 137.494 21.2467 137.074 21.088C136.747 20.9667 136.448 20.8407 136.178 20.71C135.916 20.5793 135.692 20.4253 135.506 20.248C135.319 20.0613 135.174 19.842 135.072 19.59C134.969 19.338 134.918 19.0347 134.918 18.68C134.918 17.9893 135.174 17.4433 135.688 17.042C136.201 16.6407 136.906 16.44 137.802 16.44C138.25 16.44 138.679 16.482 139.09 16.566C139.5 16.6407 139.827 16.7247 140.07 16.818L139.706 18.442C139.463 18.358 139.197 18.2833 138.908 18.218C138.628 18.1527 138.31 18.12 137.956 18.12C137.302 18.12 136.976 18.302 136.976 18.666C136.976 18.75 136.99 18.8247 137.018 18.89C137.046 18.9553 137.102 19.0207 137.186 19.086C137.27 19.142 137.382 19.2073 137.522 19.282C137.671 19.3473 137.858 19.422 138.082 19.506C138.539 19.674 138.917 19.842 139.216 20.01C139.514 20.1687 139.748 20.346 139.916 20.542C140.093 20.7287 140.214 20.9387 140.28 21.172C140.354 21.4053 140.392 21.676 140.392 21.984C140.392 22.712 140.116 23.2627 139.566 23.636C139.024 24.0093 138.254 24.196 137.256 24.196C136.602 24.196 136.056 24.14 135.618 24.028C135.188 23.916 134.89 23.8227 134.722 23.748L135.072 22.054C135.426 22.194 135.79 22.306 136.164 22.39C136.537 22.4647 136.906 22.502 137.27 22.502Z" fill="black"/>
</svg>
