<svg width="24" height="24" viewBox="0 0 24 24" fill="none" xmlns="http://www.w3.org/2000/svg">
<path fillRule="evenodd" clipRule="evenodd" d="M10.5093 1C9.86438 1 9.42822 1.56205 9.42822 2.11486V19.8767C9.42822 20.4295 9.86438 21 10.5093 21H13.7525C14.3975 21 14.8336 20.4295 14.8336 19.8767V2.11486C14.8336 1.56205 14.3975 1 13.7525 1H10.5093ZM11.0498 2.62158H13.212V4.78374H11.0498V2.62158ZM3.45217 3.16211C2.86728 3.16211 2.37109 3.6583 2.37109 4.24319V19.9189C2.37109 20.5038 2.86728 20.9999 3.45217 20.9999H6.69542C7.28031 20.9999 7.7765 20.5038 7.7765 19.9189V4.24319C7.7765 3.6583 7.28031 3.16211 6.69542 3.16211H3.45217ZM3.99268 4.78381H6.15484V6.40544H3.99268V4.78381ZM11.0498 6.4054H13.212V15.5946H11.0498V6.4054ZM3.99268 8.02698H6.15484V16.1351H3.99268V8.02698ZM11.0498 17.2162H13.212V19.3783H11.0498V17.2162ZM3.99268 17.7567H6.15484V19.3783H3.99268V17.7567ZM19.5234 17.698L21.656 17.3414L21.9234 18.9409L19.7908 19.2974L19.5234 17.698ZM20.3188 9.34436L21.3885 15.742L19.2559 16.0986L18.1863 9.70091L20.3188 9.34436ZM17.6516 6.50206L19.7842 6.14551L20.0516 7.74493L17.919 8.10148L17.6516 6.50206ZM16.8509 4.99183C16.3036 5.08333 15.8587 5.6129 15.9587 6.21138L18.2833 20.1147C18.3833 20.7132 18.9777 21.0775 19.525 20.986L22.7239 20.4512C23.2712 20.3597 23.7147 19.8218 23.6147 19.2233L21.2901 5.32001C21.1901 4.72153 20.597 4.3655 20.0497 4.45701L16.8509 4.99183Z" fill="black"/>
</svg>
